<?xml version="1.0" encoding="UTF-8"?>
<svg width="24px" height="24px" viewBox="0 0 24 24" version="1.1" xmlns="http://www.w3.org/2000/svg" xmlns:xlink="http://www.w3.org/1999/xlink">
    <title>expose-all</title>
    <g id="expose-all" stroke="none" stroke-width="1" fill="none" fill-rule="evenodd">
        <g fill="#000000" fill-rule="nonzero" id="Combined-Shape">
            <path d="M12,0 C18.627417,0 24,5.372583 24,12 C24,18.627417 18.627417,24 12,24 C5.372583,24 0,18.627417 0,12 C0,5.372583 5.372583,0 12,0 Z M8.97125567,8 C8.40645487,8 7.88224912,8.10338681 7.39863843,8.31016043 C6.91502774,8.51693405 6.49672214,8.79857398 6.14372163,9.15508021 C5.79072113,9.51158645 5.51185073,9.93404635 5.30711044,10.4224599 C5.10237015,10.9108734 5,11.4367201 5,12 C5,12.5632799 5.10237015,13.0891266 5.30711044,13.5775401 C5.51185073,14.0659537 5.79072113,14.4884135 6.14372163,14.8449198 C6.49672214,15.201426 6.91502774,15.483066 7.39863843,15.6898396 C7.88224912,15.8966132 8.40645487,16 8.97125567,16 C9.59959657,16 10.1679274,15.8805704 10.6762481,15.6417112 C11.1119516,15.4369748 11.4983791,15.1523518 11.8355306,14.7878424 L12,14.5989305 L10.9833586,13.6256684 C10.7291982,13.9465241 10.4379728,14.1942959 10.1096823,14.368984 C9.78139183,14.543672 9.40544629,14.631016 8.98184569,14.631016 C8.62884518,14.631016 8.29702471,14.5686275 7.98638427,14.4438503 C7.67574382,14.3190731 7.40569844,14.1426025 7.17624811,13.9144385 C6.94679778,13.6862745 6.76500252,13.4099822 6.63086233,13.0855615 C6.49672214,12.7611408 6.42965204,12.399287 6.42965204,12 C6.42965204,11.600713 6.49672214,11.2388592 6.63086233,10.9144385 C6.76500252,10.5900178 6.94679778,10.3137255 7.17624811,10.0855615 C7.40569844,9.8573975 7.67574382,9.68092692 7.98638427,9.55614973 C8.29702471,9.43137255 8.62884518,9.36898396 8.98184569,9.36898396 C9.38426626,9.36898396 9.73197176,9.44741533 10.0249622,9.60427807 C10.2593545,9.72976827 10.4722844,9.88948307 10.6637519,10.0834225 L10.8033283,10.2352941 L11.8093797,9.2513369 C11.4493192,8.84491979 11.0380736,8.53475936 10.575643,8.32085561 C10.1132123,8.10695187 9.57841654,8 8.97125567,8 Z M15.9712557,8 C15.4064549,8 14.8822491,8.10338681 14.3986384,8.31016043 C13.9150277,8.51693405 13.4967221,8.79857398 13.1437216,9.15508021 C12.7907211,9.51158645 12.5118507,9.93404635 12.3071104,10.4224599 C12.1023701,10.9108734 12,11.4367201 12,12 C12,12.5632799 12.1023701,13.0891266 12.3071104,13.5775401 C12.5118507,14.0659537 12.7907211,14.4884135 13.1437216,14.8449198 C13.4967221,15.201426 13.9150277,15.483066 14.3986384,15.6898396 C14.8822491,15.8966132 15.4064549,16 15.9712557,16 C16.5995966,16 17.1679274,15.8805704 17.6762481,15.6417112 C18.1119516,15.4369748 18.4983791,15.1523518 18.8355306,14.7878424 L19,14.5989305 L17.9833585,13.6256684 C17.7291982,13.9465241 17.4379728,14.1942959 17.1096823,14.368984 C16.7813918,14.543672 16.4054463,14.631016 15.9818457,14.631016 C15.6288452,14.631016 15.2970247,14.5686275 14.9863843,14.4438503 C14.6757438,14.3190731 14.4056984,14.1426025 14.1762481,13.9144385 C13.9467978,13.6862745 13.7650025,13.4099822 13.6308623,13.0855615 C13.4967221,12.7611408 13.429652,12.399287 13.429652,12 C13.429652,11.600713 13.4967221,11.2388592 13.6308623,10.9144385 C13.7650025,10.5900178 13.9467978,10.3137255 14.1762481,10.0855615 C14.4056984,9.8573975 14.6757438,9.68092692 14.9863843,9.55614973 C15.2970247,9.43137255 15.6288452,9.36898396 15.9818457,9.36898396 C16.3842663,9.36898396 16.7319718,9.44741533 17.0249622,9.60427807 C17.2593545,9.72976827 17.4722844,9.88948307 17.6637519,10.0834225 L17.8033283,10.2352941 L18.8093797,9.2513369 C18.4493192,8.84491979 18.0380736,8.53475936 17.575643,8.32085561 C17.1132123,8.10695187 16.5784165,8 15.9712557,8 Z"></path>
        </g>
    </g>
</svg>