<?xml version="1.0" encoding="UTF-8"?>
<svg width="24px" height="24px" viewBox="0 0 24 24" version="1.1" xmlns="http://www.w3.org/2000/svg" xmlns:xlink="http://www.w3.org/1999/xlink">
    <title>expose-none</title>
    <g id="expose-none" stroke="none" stroke-width="1" fill="none" fill-rule="evenodd">
        <g fill="#000000" fill-rule="nonzero" id="Combined-Shape">
            <path d="M12,0 C18.627417,0 24,5.372583 24,12 C24,18.627417 18.627417,24 12,24 C5.372583,24 0,18.627417 0,12 C0,5.372583 5.372583,0 12,0 Z M10.1428571,11 L5.85714286,11 C5.38375593,11 5,11.4477153 5,12 C5,12.5522847 5.38375593,13 5.85714286,13 L5.85714286,13 L10.1428571,13 C10.616244,13 11,12.5522847 11,12 C11,11.4477153 10.616244,11 10.1428571,11 L10.1428571,11 Z M18.1428571,11 L13.8571429,11 C13.383756,11 13,11.4477153 13,12 C13,12.5522847 13.383756,13 13.8571429,13 L13.8571429,13 L18.1428571,13 C18.616244,13 19,12.5522847 19,12 C19,11.4477153 18.616244,11 18.1428571,11 L18.1428571,11 Z"></path>
        </g>
    </g>
</svg>