<?xml version="1.0" encoding="UTF-8"?>
<svg width="24px" height="24px" viewBox="0 0 24 24" version="1.1" xmlns="http://www.w3.org/2000/svg" xmlns:xlink="http://www.w3.org/1999/xlink">
    <title>language-en-ko</title>
    <g id="language-en-ko" stroke="none" stroke-width="1" fill="none" fill-rule="evenodd">
        <path d="M12,0 C18.627417,0 24,5.372583 24,12 C24,18.627417 18.627417,24 12,24 C5.372583,24 0,18.627417 0,12 C0,5.372583 5.372583,0 12,0 Z M19.374868,9 L18.3616684,9 L18.2953479,9.00463446 C18.2559643,9.01081373 18.2262408,9.02317229 18.2061774,9.04171011 C18.186114,9.06024794 18.1727385,9.08959951 18.1660507,9.1297648 L18.1660507,9.1297648 L18.1610348,9.19812304 L18.1610348,18.801877 L18.1638563,18.8589025 C18.1694991,18.9103884 18.1836061,18.9452555 18.2061774,18.9635036 C18.2262408,18.9797242 18.2559643,18.990538 18.2953479,18.9959448 L18.2953479,18.9959448 L18.3616684,19 L19.374868,19 L19.4400739,18.9959448 C19.4779714,18.990538 19.5047225,18.9797242 19.5203273,18.9635036 C19.5378828,18.9452555 19.5488549,18.9103884 19.5532438,18.8589025 L19.5532438,18.8589025 L19.5554382,18.801877 L19.5554382,13.9426486 L20.7993664,13.9426486 L20.8556553,13.9385934 C20.8905804,13.9331866 20.9203039,13.9223728 20.9448258,13.9061522 C20.9724129,13.8879041 20.9896548,13.853037 20.9965516,13.8015511 L20.9965516,13.8015511 L21,13.7445255 L21,12.9520334 L20.9965516,12.8865355 C20.9896548,12.8285323 20.9724129,12.7930136 20.9448258,12.7799791 C20.9203039,12.768393 20.8905804,12.7606689 20.8556553,12.7568069 L20.8556553,12.7568069 L20.7993664,12.7539103 L19.5554382,12.7539103 L19.5554382,9.19812304 L19.551537,9.1297648 C19.5463354,9.08959951 19.5359322,9.06024794 19.5203273,9.04171011 C19.5047225,9.02317229 19.4779714,9.01081373 19.4400739,9.00463446 L19.4400739,9.00463446 L19.374868,9 Z M16.2650475,9.77163712 L12.6135164,9.77163712 L12.5477531,9.77569227 C12.5091126,9.78109914 12.4808753,9.79191287 12.4630412,9.80813347 C12.4429778,9.82638165 12.4304382,9.8612487 12.4254224,9.91273462 L12.4254224,9.91273462 L12.4229145,9.96976017 L12.4229145,10.7518248 L12.4262584,10.8207624 C12.4307169,10.8617001 12.4396339,10.8925965 12.4530095,10.9134515 C12.468057,10.9369135 12.5019139,10.9515772 12.5545803,10.9574426 L12.5545803,10.9574426 L12.6135164,10.9603754 L15.4123548,10.9603754 L15.4666931,10.9664581 C15.5475038,10.9867339 15.5795495,11.057699 15.56283,11.1793535 C15.4424498,12.0900243 15.0913411,12.9311783 14.5095037,13.7028154 C13.9276663,14.4744526 13.1318198,15.1557178 12.1219641,15.7466111 C12.061774,15.7813695 12.0233193,15.8300313 12.0065998,15.8925965 C11.9940602,15.9395203 11.9993895,15.9883994 12.0225878,16.0392336 L12.0225878,16.0392336 L12.0517423,16.0907195 L12.5232313,16.8206465 L12.5630445,16.870829 C12.6025442,16.9138425 12.6411035,16.9353493 12.6787223,16.9353493 C12.7288807,16.9353493 12.8007744,16.9075426 12.8944034,16.8519291 C13.5163675,16.4973931 14.0747976,16.0924574 14.5696938,15.637122 C15.0645899,15.1817866 15.4909363,14.6899548 15.8487328,14.1616267 C16.2065294,13.6332986 16.4874164,13.0736879 16.6913939,12.4827946 C16.8953713,11.8919013 17.0174234,11.2836288 17.0575502,10.6579771 C17.0776135,10.3521029 17.0341429,10.127911 16.9271383,9.98540146 C16.8354201,9.86325041 16.6601728,9.79344981 16.4013965,9.77599966 L16.4013965,9.77599966 L16.2650475,9.77163712 Z M8.89017341,6 L7.10982659,6 L4,14 L5.72254335,14 L6.40462428,12.0893855 L9.59537572,12.0893855 L10.2774566,14 L12,14 L8.89017341,6 Z M8.04624277,7.73184358 L8.34682081,8.70391061 L9.0867052,10.7039106 L6.9132948,10.7039106 L7.65317919,8.70391061 L7.95375723,7.73184358 L8.04624277,7.73184358 Z" id="Combined-Shape" fill="#000000"></path>
    </g>
</svg>