<?xml version="1.0" encoding="UTF-8"?>
<svg width="24px" height="24px" viewBox="0 0 24 24" version="1.1" xmlns="http://www.w3.org/2000/svg" xmlns:xlink="http://www.w3.org/1999/xlink">
    <title>language-ko</title>
    <g id="language-ko" stroke="none" stroke-width="1" fill="none" fill-rule="evenodd">
        <path d="M12,0 C18.627417,0 24,5.372583 24,12 C24,18.627417 18.627417,24 12,24 C5.372583,24 0,18.627417 0,12 C0,5.372583 5.372583,0 12,0 Z M15.5137276,6 L14.2753725,6 C14.185459,6 14.1221108,6.01668405 14.0853279,6.05005214 C14.0577408,6.07507821 14.0404989,6.11652763 14.0336021,6.17440042 L14.0301537,6.23774765 L14.0301537,17.7622523 C14.0301537,17.8623566 14.0485451,17.9270073 14.0853279,17.9562044 C14.1098498,17.9756691 14.1461785,17.9886456 14.1943141,17.9951338 L14.2753725,18 L15.5137276,18 C15.6036411,18 15.6629023,17.9854015 15.6915112,17.9562044 C15.7129679,17.9343066 15.7263783,17.8924661 15.7317424,17.830683 L15.7344245,17.7622523 L15.7344245,11.9311783 L17.2547812,11.9311783 C17.3283468,11.9311783 17.387608,11.9165798 17.4325648,11.8873827 C17.4662824,11.8654849 17.4873559,11.8236444 17.4957853,11.7618613 L17.5,11.6934307 L17.5,10.74244 C17.5,10.6256517 17.4775216,10.55683 17.4325648,10.535975 C17.4025936,10.5220716 17.3662649,10.5128027 17.3235787,10.5081682 L17.2547812,10.5046924 L15.7344245,10.5046924 L15.7344245,6.23774765 C15.7344245,6.1459854 15.7201201,6.08342023 15.6915112,6.05005214 C15.6700546,6.02502607 15.631356,6.00938478 15.5754154,6.00312826 L15.5137276,6 Z M11.7128359,6.92596455 L7.24985334,6.92596455 C7.15993977,6.92596455 7.09863507,6.94056309 7.06593922,6.96976017 C7.04141734,6.99165798 7.02609117,7.03349844 7.01996069,7.09528154 L7.01689546,7.1637122 L7.01689546,8.10218978 C7.01689546,8.19395203 7.0291564,8.25860271 7.05367828,8.29614181 C7.07206969,8.32429614 7.11345037,8.3418926 7.17782031,8.34893118 L7.24985334,8.35245047 L10.6706559,8.35245047 C10.8177872,8.35245047 10.8790919,8.44004171 10.85457,8.61522419 C10.7074387,9.7080292 10.2783058,10.717414 9.56717118,11.6433785 C8.85603661,12.5693431 7.88333529,13.3868613 6.64906723,14.0959333 C6.57550158,14.1376434 6.52850131,14.1960375 6.50806641,14.2711157 C6.49274023,14.3274244 6.49925386,14.3860792 6.52760728,14.4470803 L6.56324064,14.5088634 L7.13950487,15.3847758 C7.20489655,15.4765381 7.26824475,15.5224192 7.32954945,15.5224192 C7.39085416,15.5224192 7.47872424,15.4890511 7.59315969,15.4223149 C8.35333803,14.9968717 9.03586374,14.5109489 9.64073683,13.9645464 C10.2456099,13.4181439 10.7666999,12.8279458 11.2040068,12.193952 C11.6413137,11.5599583 11.98462,10.8884254 12.2339258,10.1793535 C12.4832316,9.47028154 12.6324064,8.74035454 12.6814502,7.98957247 C12.7059721,7.62252346 12.6528413,7.35349322 12.522058,7.18248175 C12.4076225,7.03284672 12.1867979,6.94867701 11.859584,6.92997263 L11.7128359,6.92596455 Z" id="Combined-Shape" fill="#000000"></path>
    </g>
</svg>