<?xml version="1.0" encoding="UTF-8"?>
<svg width="24px" height="24px" viewBox="0 0 24 24" version="1.1" xmlns="http://www.w3.org/2000/svg" xmlns:xlink="http://www.w3.org/1999/xlink">
    <title>language-en</title>
    <g id="language-en" stroke="none" stroke-width="1" fill="none" fill-rule="evenodd">
        <path d="M12,0 C18.627417,0 24,5.372583 24,12 C24,18.627417 18.627417,24 12,24 C5.372583,24 0,18.627417 0,12 C0,5.372583 5.372583,0 12,0 Z M13.1127168,7 L10.8872832,7 L7,17 L9.15317919,17 L10.0057803,14.6117318 L13.9942197,14.6117318 L14.8468208,17 L17,17 L13.1127168,7 Z M12.0578035,9.16480447 L12.433526,10.3798883 L13.3583815,12.8798883 L10.6416185,12.8798883 L11.566474,10.3798883 L11.9421965,9.16480447 L12.0578035,9.16480447 Z" id="Combined-Shape" fill="#000000"></path>
    </g>
</svg>